<mxfile host="app.diagrams.net" agent="Mozilla/5.0 (Windows NT 10.0; Win64; x64) AppleWebKit/537.36 (KHTML, like Gecko) Chrome/130.0.0.0 YaBrowser/24.12.0.0 Safari/537.36" version="26.0.10">
  <diagram name="Страница — 1" id="b6AnPtS-dUUyqT-bA7N-">
    <mxGraphModel dx="1304" dy="274" grid="1" gridSize="10" guides="1" tooltips="1" connect="1" arrows="1" fold="1" page="1" pageScale="1" pageWidth="827" pageHeight="1169" math="0" shadow="0">
      <root>
        <mxCell id="0" />
        <mxCell id="1" parent="0" />
        <mxCell id="O_ZaIM-_1uLiHS-mfBXu-37" value="" style="rounded=0;whiteSpace=wrap;html=1;" parent="1" vertex="1">
          <mxGeometry x="320" y="280" width="300" height="500" as="geometry" />
        </mxCell>
        <mxCell id="O_ZaIM-_1uLiHS-mfBXu-35" value="" style="rounded=0;whiteSpace=wrap;html=1;fontStyle=1" parent="1" vertex="1">
          <mxGeometry x="-270" y="280" width="540" height="500" as="geometry" />
        </mxCell>
        <mxCell id="O_ZaIM-_1uLiHS-mfBXu-9" style="edgeStyle=orthogonalEdgeStyle;rounded=0;orthogonalLoop=1;jettySize=auto;html=1;entryX=0.5;entryY=0;entryDx=0;entryDy=0;" parent="1" source="O_ZaIM-_1uLiHS-mfBXu-1" target="O_ZaIM-_1uLiHS-mfBXu-2" edge="1">
          <mxGeometry relative="1" as="geometry" />
        </mxCell>
        <mxCell id="O_ZaIM-_1uLiHS-mfBXu-1" value="Internet" style="ellipse;shape=cloud;whiteSpace=wrap;html=1;" parent="1" vertex="1">
          <mxGeometry x="240" y="50" width="120" height="80" as="geometry" />
        </mxCell>
        <mxCell id="O_ZaIM-_1uLiHS-mfBXu-18" style="edgeStyle=orthogonalEdgeStyle;rounded=0;orthogonalLoop=1;jettySize=auto;html=1;exitX=0;exitY=0.5;exitDx=0;exitDy=0;" parent="1" source="O_ZaIM-_1uLiHS-mfBXu-2" target="O_ZaIM-_1uLiHS-mfBXu-3" edge="1">
          <mxGeometry relative="1" as="geometry" />
        </mxCell>
        <mxCell id="O_ZaIM-_1uLiHS-mfBXu-19" style="edgeStyle=orthogonalEdgeStyle;rounded=0;orthogonalLoop=1;jettySize=auto;html=1;exitX=1;exitY=0.5;exitDx=0;exitDy=0;" parent="1" source="O_ZaIM-_1uLiHS-mfBXu-2" target="O_ZaIM-_1uLiHS-mfBXu-4" edge="1">
          <mxGeometry relative="1" as="geometry" />
        </mxCell>
        <mxCell id="O_ZaIM-_1uLiHS-mfBXu-2" value="ISP" style="rounded=1;whiteSpace=wrap;html=1;" parent="1" vertex="1">
          <mxGeometry x="240" y="190" width="120" height="60" as="geometry" />
        </mxCell>
        <mxCell id="O_ZaIM-_1uLiHS-mfBXu-13" style="edgeStyle=orthogonalEdgeStyle;rounded=0;orthogonalLoop=1;jettySize=auto;html=1;exitX=0.5;exitY=1;exitDx=0;exitDy=0;" parent="1" source="O_ZaIM-_1uLiHS-mfBXu-3" target="O_ZaIM-_1uLiHS-mfBXu-5" edge="1">
          <mxGeometry relative="1" as="geometry" />
        </mxCell>
        <mxCell id="O_ZaIM-_1uLiHS-mfBXu-3" value="HQ-RTR" style="rounded=1;whiteSpace=wrap;html=1;" parent="1" vertex="1">
          <mxGeometry x="50" y="390" width="120" height="60" as="geometry" />
        </mxCell>
        <mxCell id="O_ZaIM-_1uLiHS-mfBXu-15" style="edgeStyle=orthogonalEdgeStyle;rounded=0;orthogonalLoop=1;jettySize=auto;html=1;exitX=0.5;exitY=1;exitDx=0;exitDy=0;" parent="1" source="O_ZaIM-_1uLiHS-mfBXu-4" target="O_ZaIM-_1uLiHS-mfBXu-8" edge="1">
          <mxGeometry relative="1" as="geometry" />
        </mxCell>
        <mxCell id="O_ZaIM-_1uLiHS-mfBXu-4" value="BR-RTR" style="rounded=1;whiteSpace=wrap;html=1;" parent="1" vertex="1">
          <mxGeometry x="450" y="390" width="120" height="60" as="geometry" />
        </mxCell>
        <mxCell id="O_ZaIM-_1uLiHS-mfBXu-10" style="edgeStyle=orthogonalEdgeStyle;rounded=0;orthogonalLoop=1;jettySize=auto;html=1;exitX=0;exitY=0.5;exitDx=0;exitDy=0;" parent="1" source="O_ZaIM-_1uLiHS-mfBXu-5" target="O_ZaIM-_1uLiHS-mfBXu-6" edge="1">
          <mxGeometry relative="1" as="geometry" />
        </mxCell>
        <mxCell id="O_ZaIM-_1uLiHS-mfBXu-11" style="edgeStyle=orthogonalEdgeStyle;rounded=0;orthogonalLoop=1;jettySize=auto;html=1;exitX=1;exitY=0.5;exitDx=0;exitDy=0;entryX=0.5;entryY=0;entryDx=0;entryDy=0;" parent="1" source="O_ZaIM-_1uLiHS-mfBXu-5" target="O_ZaIM-_1uLiHS-mfBXu-7" edge="1">
          <mxGeometry relative="1" as="geometry" />
        </mxCell>
        <mxCell id="O_ZaIM-_1uLiHS-mfBXu-5" value="HQ-SW" style="rounded=1;whiteSpace=wrap;html=1;" parent="1" vertex="1">
          <mxGeometry y="585" width="120" height="60" as="geometry" />
        </mxCell>
        <mxCell id="O_ZaIM-_1uLiHS-mfBXu-6" value="HQ-SRV" style="rounded=0;whiteSpace=wrap;html=1;" parent="1" vertex="1">
          <mxGeometry x="-140" y="710" width="120" height="60" as="geometry" />
        </mxCell>
        <mxCell id="O_ZaIM-_1uLiHS-mfBXu-7" value="HQ-CLI" style="rounded=0;whiteSpace=wrap;html=1;" parent="1" vertex="1">
          <mxGeometry x="150" y="710" width="120" height="60" as="geometry" />
        </mxCell>
        <mxCell id="O_ZaIM-_1uLiHS-mfBXu-8" value="BR-SRV" style="rounded=0;whiteSpace=wrap;html=1;" parent="1" vertex="1">
          <mxGeometry x="450" y="590" width="120" height="60" as="geometry" />
        </mxCell>
        <mxCell id="O_ZaIM-_1uLiHS-mfBXu-12" value="OpenVSwitch" style="text;html=1;align=center;verticalAlign=middle;whiteSpace=wrap;rounded=0;" parent="1" vertex="1">
          <mxGeometry x="30" y="645" width="60" height="30" as="geometry" />
        </mxCell>
        <mxCell id="O_ZaIM-_1uLiHS-mfBXu-20" value="ISP-HQ" style="text;html=1;align=center;verticalAlign=middle;whiteSpace=wrap;rounded=0;" parent="1" vertex="1">
          <mxGeometry x="80" y="300" width="60" height="30" as="geometry" />
        </mxCell>
        <mxCell id="O_ZaIM-_1uLiHS-mfBXu-22" value="HQ-NET" style="text;html=1;align=center;verticalAlign=middle;whiteSpace=wrap;rounded=0;" parent="1" vertex="1">
          <mxGeometry x="80" y="490" width="60" height="30" as="geometry" />
        </mxCell>
        <mxCell id="O_ZaIM-_1uLiHS-mfBXu-23" value="SRV-NET" style="text;html=1;align=center;verticalAlign=middle;whiteSpace=wrap;rounded=0;" parent="1" vertex="1">
          <mxGeometry x="-70" y="620" width="60" height="30" as="geometry" />
        </mxCell>
        <mxCell id="O_ZaIM-_1uLiHS-mfBXu-24" value="HQ-CLI" style="text;html=1;align=center;verticalAlign=middle;whiteSpace=wrap;rounded=0;" parent="1" vertex="1">
          <mxGeometry x="130" y="620" width="60" height="30" as="geometry" />
        </mxCell>
        <mxCell id="O_ZaIM-_1uLiHS-mfBXu-25" value="ISP-BR" style="text;html=1;align=center;verticalAlign=middle;whiteSpace=wrap;rounded=0;" parent="1" vertex="1">
          <mxGeometry x="480" y="290" width="60" height="30" as="geometry" />
        </mxCell>
        <mxCell id="O_ZaIM-_1uLiHS-mfBXu-26" value="BR-NET" style="text;html=1;align=center;verticalAlign=middle;whiteSpace=wrap;rounded=0;" parent="1" vertex="1">
          <mxGeometry x="400" y="530" width="60" height="30" as="geometry" />
        </mxCell>
        <mxCell id="O_ZaIM-_1uLiHS-mfBXu-27" value="/26" style="text;html=1;align=center;verticalAlign=middle;whiteSpace=wrap;rounded=0;" parent="1" vertex="1">
          <mxGeometry x="-90" y="660" width="60" height="30" as="geometry" />
        </mxCell>
        <mxCell id="O_ZaIM-_1uLiHS-mfBXu-28" value="/28" style="text;html=1;align=center;verticalAlign=middle;whiteSpace=wrap;rounded=0;" parent="1" vertex="1">
          <mxGeometry x="170" y="660" width="60" height="30" as="geometry" />
        </mxCell>
        <mxCell id="O_ZaIM-_1uLiHS-mfBXu-29" value="/27" style="text;html=1;align=center;verticalAlign=middle;whiteSpace=wrap;rounded=0;" parent="1" vertex="1">
          <mxGeometry x="460" y="560" width="60" height="30" as="geometry" />
        </mxCell>
        <mxCell id="O_ZaIM-_1uLiHS-mfBXu-30" value="10.0.0.0/29" style="text;html=1;align=center;verticalAlign=middle;whiteSpace=wrap;rounded=0;" parent="1" vertex="1">
          <mxGeometry x="-70" y="590" width="60" height="30" as="geometry" />
        </mxCell>
        <mxCell id="O_ZaIM-_1uLiHS-mfBXu-31" value="10.0.0.0/29" style="text;html=1;align=center;verticalAlign=middle;whiteSpace=wrap;rounded=0;" parent="1" vertex="1">
          <mxGeometry x="130" y="590" width="60" height="30" as="geometry" />
        </mxCell>
        <mxCell id="O_ZaIM-_1uLiHS-mfBXu-32" value="172.16.4.1&lt;span style=&quot;background-color: initial;&quot;&gt;/28&lt;/span&gt;" style="text;html=1;align=center;verticalAlign=middle;whiteSpace=wrap;rounded=0;" parent="1" vertex="1">
          <mxGeometry x="160" y="190" width="60" height="30" as="geometry" />
        </mxCell>
        <mxCell id="O_ZaIM-_1uLiHS-mfBXu-33" value="172.16.5.1/28" style="text;html=1;align=center;verticalAlign=middle;whiteSpace=wrap;rounded=0;" parent="1" vertex="1">
          <mxGeometry x="414" y="190" width="60" height="30" as="geometry" />
        </mxCell>
        <mxCell id="O_ZaIM-_1uLiHS-mfBXu-34" value="BR" style="text;html=1;align=center;verticalAlign=middle;whiteSpace=wrap;rounded=0;" parent="1" vertex="1">
          <mxGeometry x="560" y="750" width="60" height="30" as="geometry" />
        </mxCell>
        <mxCell id="O_ZaIM-_1uLiHS-mfBXu-36" value="HQ" style="text;html=1;align=center;verticalAlign=middle;whiteSpace=wrap;rounded=0;" parent="1" vertex="1">
          <mxGeometry x="-270" y="750" width="60" height="30" as="geometry" />
        </mxCell>
        <mxCell id="O_ZaIM-_1uLiHS-mfBXu-38" value="172.16.4.2/28" style="text;html=1;align=center;verticalAlign=middle;whiteSpace=wrap;rounded=0;" parent="1" vertex="1">
          <mxGeometry x="40" y="360" width="60" height="30" as="geometry" />
        </mxCell>
        <mxCell id="O_ZaIM-_1uLiHS-mfBXu-39" value="172.16.5.2/28" style="text;html=1;align=center;verticalAlign=middle;whiteSpace=wrap;rounded=0;" parent="1" vertex="1">
          <mxGeometry x="450" y="360" width="60" height="30" as="geometry" />
        </mxCell>
        <mxCell id="O_ZaIM-_1uLiHS-mfBXu-40" value="172.16.4.3/28" style="text;html=1;align=center;verticalAlign=middle;whiteSpace=wrap;rounded=0;" parent="1" vertex="1">
          <mxGeometry x="40" y="450" width="60" height="30" as="geometry" />
        </mxCell>
        <mxCell id="O_ZaIM-_1uLiHS-mfBXu-41" value="172.16.5.3/27" style="text;html=1;align=center;verticalAlign=middle;whiteSpace=wrap;rounded=0;" parent="1" vertex="1">
          <mxGeometry x="520" y="450" width="60" height="30" as="geometry" />
        </mxCell>
        <mxCell id="O_ZaIM-_1uLiHS-mfBXu-42" value="172.16.4.4/28" style="text;html=1;align=center;verticalAlign=middle;whiteSpace=wrap;rounded=0;" parent="1" vertex="1">
          <mxGeometry x="-10" y="555" width="60" height="30" as="geometry" />
        </mxCell>
        <mxCell id="O_ZaIM-_1uLiHS-mfBXu-43" value="" style="endArrow=none;dashed=1;html=1;rounded=0;" parent="1" source="O_ZaIM-_1uLiHS-mfBXu-44" target="O_ZaIM-_1uLiHS-mfBXu-4" edge="1">
          <mxGeometry width="50" height="50" relative="1" as="geometry">
            <mxPoint x="170" y="419.41" as="sourcePoint" />
            <mxPoint x="260" y="419.41" as="targetPoint" />
          </mxGeometry>
        </mxCell>
        <mxCell id="O_ZaIM-_1uLiHS-mfBXu-45" value="172.16.0.1./24" style="text;html=1;align=center;verticalAlign=middle;whiteSpace=wrap;rounded=0;" parent="1" vertex="1">
          <mxGeometry x="180" y="420" width="60" height="30" as="geometry" />
        </mxCell>
        <mxCell id="O_ZaIM-_1uLiHS-mfBXu-46" value="172.16.0.2./24" style="text;html=1;align=center;verticalAlign=middle;whiteSpace=wrap;rounded=0;" parent="1" vertex="1">
          <mxGeometry x="380" y="420" width="60" height="30" as="geometry" />
        </mxCell>
        <mxCell id="O_ZaIM-_1uLiHS-mfBXu-49" value="" style="endArrow=none;dashed=1;html=1;rounded=0;" parent="1" target="O_ZaIM-_1uLiHS-mfBXu-44" edge="1">
          <mxGeometry width="50" height="50" relative="1" as="geometry">
            <mxPoint x="170" y="419.41" as="sourcePoint" />
            <mxPoint x="450" y="420" as="targetPoint" />
          </mxGeometry>
        </mxCell>
        <mxCell id="O_ZaIM-_1uLiHS-mfBXu-44" value="GRE" style="text;html=1;align=center;verticalAlign=middle;whiteSpace=wrap;rounded=0;" parent="1" vertex="1">
          <mxGeometry x="260" y="405" width="60" height="30" as="geometry" />
        </mxCell>
        <mxCell id="k5oq742dMYxYw2PUv_gX-1" value="" style="rounded=0;whiteSpace=wrap;html=1;fillColor=none;dashed=1;dashPattern=8 8;" vertex="1" parent="1">
          <mxGeometry x="422.5" y="1165" width="180" height="325" as="geometry" />
        </mxCell>
        <mxCell id="k5oq742dMYxYw2PUv_gX-2" value="" style="rounded=1;whiteSpace=wrap;html=1;" vertex="1" parent="1">
          <mxGeometry x="76" y="1264" width="50" height="20" as="geometry" />
        </mxCell>
        <mxCell id="k5oq742dMYxYw2PUv_gX-3" value="" style="rounded=0;whiteSpace=wrap;html=1;fillColor=none;dashed=1;dashPattern=8 8;" vertex="1" parent="1">
          <mxGeometry x="40" y="1165" width="330" height="325" as="geometry" />
        </mxCell>
        <mxCell id="k5oq742dMYxYw2PUv_gX-4" value="" style="ellipse;whiteSpace=wrap;html=1;fillColor=none;dashed=1;strokeColor=#FFAB2B;strokeWidth=3;" vertex="1" parent="1">
          <mxGeometry x="45" y="1230" width="112" height="250" as="geometry" />
        </mxCell>
        <mxCell id="k5oq742dMYxYw2PUv_gX-5" value="" style="endArrow=none;html=1;rounded=0;strokeWidth=3;" edge="1" parent="1">
          <mxGeometry width="50" height="50" relative="1" as="geometry">
            <mxPoint x="507.15999999999997" y="1350" as="sourcePoint" />
            <mxPoint x="507.15999999999997" y="1180" as="targetPoint" />
          </mxGeometry>
        </mxCell>
        <mxCell id="k5oq742dMYxYw2PUv_gX-6" value="" style="endArrow=none;html=1;rounded=0;strokeWidth=3;" edge="1" parent="1">
          <mxGeometry width="50" height="50" relative="1" as="geometry">
            <mxPoint x="215" y="1350" as="sourcePoint" />
            <mxPoint x="215" y="1180" as="targetPoint" />
          </mxGeometry>
        </mxCell>
        <mxCell id="k5oq742dMYxYw2PUv_gX-7" value="" style="endArrow=none;html=1;rounded=0;strokeWidth=3;" edge="1" parent="1">
          <mxGeometry width="50" height="50" relative="1" as="geometry">
            <mxPoint x="230" y="952" as="sourcePoint" />
            <mxPoint x="505" y="1157" as="targetPoint" />
            <Array as="points">
              <mxPoint x="505" y="952.5999999999999" />
            </Array>
          </mxGeometry>
        </mxCell>
        <mxCell id="k5oq742dMYxYw2PUv_gX-8" value="" style="endArrow=none;html=1;rounded=0;strokeWidth=3;" edge="1" parent="1">
          <mxGeometry width="50" height="50" relative="1" as="geometry">
            <mxPoint x="215" y="1150" as="sourcePoint" />
            <mxPoint x="214.76" y="978" as="targetPoint" />
          </mxGeometry>
        </mxCell>
        <mxCell id="k5oq742dMYxYw2PUv_gX-9" value="" style="sketch=0;points=[[0.5,0,0],[1,0.5,0],[0.5,1,0],[0,0.5,0],[0.145,0.145,0],[0.8555,0.145,0],[0.855,0.8555,0],[0.145,0.855,0]];verticalLabelPosition=bottom;html=1;verticalAlign=top;aspect=fixed;align=center;pointerEvents=1;shape=mxgraph.cisco19.rect;prIcon=router;fillColor=#FAFAFA;strokeColor=#005073;" vertex="1" parent="1">
          <mxGeometry x="190" y="930" width="50" height="50" as="geometry" />
        </mxCell>
        <mxCell id="k5oq742dMYxYw2PUv_gX-10" value="" style="html=1;verticalLabelPosition=bottom;align=center;labelBackgroundColor=#ffffff;verticalAlign=top;strokeWidth=1;strokeColor=#0080F0;shadow=0;dashed=0;shape=mxgraph.ios7.icons.cloud;" vertex="1" parent="1">
          <mxGeometry x="182.5" y="820" width="65" height="40" as="geometry" />
        </mxCell>
        <mxCell id="k5oq742dMYxYw2PUv_gX-11" value="iNET" style="text;html=1;align=center;verticalAlign=middle;resizable=0;points=[];autosize=1;strokeColor=none;fillColor=none;" vertex="1" parent="1">
          <mxGeometry x="190" y="830" width="50" height="30" as="geometry" />
        </mxCell>
        <mxCell id="k5oq742dMYxYw2PUv_gX-12" style="edgeStyle=orthogonalEdgeStyle;rounded=0;orthogonalLoop=1;jettySize=auto;html=1;entryX=0.5;entryY=0;entryDx=0;entryDy=0;entryPerimeter=0;endSize=0;strokeWidth=3;" edge="1" parent="1" source="k5oq742dMYxYw2PUv_gX-11" target="k5oq742dMYxYw2PUv_gX-9">
          <mxGeometry relative="1" as="geometry" />
        </mxCell>
        <mxCell id="k5oq742dMYxYw2PUv_gX-13" value="&lt;b&gt;&lt;font style=&quot;font-size: 9px;&quot;&gt;&lt;font style=&quot;color: rgb(255, 22, 22);&quot;&gt;- &lt;/font&gt;&lt;font style=&quot;color: rgb(13, 0, 185);&quot;&gt;dhcp&lt;/font&gt;&lt;/font&gt;&lt;/b&gt;&lt;div&gt;&lt;b&gt;&lt;font style=&quot;&quot;&gt;&lt;font style=&quot;color: rgb(13, 0, 185); font-size: 9px;&quot;&gt;enp6s18&lt;/font&gt;&lt;/font&gt;&lt;/b&gt;&lt;/div&gt;" style="text;html=1;align=left;verticalAlign=middle;resizable=0;points=[];autosize=1;strokeColor=none;fillColor=none;" vertex="1" parent="1">
          <mxGeometry x="170" y="890" width="60" height="40" as="geometry" />
        </mxCell>
        <mxCell id="k5oq742dMYxYw2PUv_gX-14" value="&lt;b&gt;&lt;font style=&quot;color: rgb(0, 153, 0); font-size: 15px;&quot;&gt;ISP&lt;/font&gt;&lt;/b&gt;" style="text;html=1;align=center;verticalAlign=middle;resizable=0;points=[];autosize=1;strokeColor=none;fillColor=none;" vertex="1" parent="1">
          <mxGeometry x="150" y="940" width="50" height="30" as="geometry" />
        </mxCell>
        <mxCell id="k5oq742dMYxYw2PUv_gX-15" value="" style="sketch=0;points=[[0.5,0,0],[1,0.5,0],[0.5,1,0],[0,0.5,0],[0.145,0.145,0],[0.8555,0.145,0],[0.855,0.8555,0],[0.145,0.855,0]];verticalLabelPosition=bottom;html=1;verticalAlign=top;aspect=fixed;align=center;pointerEvents=1;shape=mxgraph.cisco19.rect;prIcon=router;fillColor=#FAFAFA;strokeColor=#005073;" vertex="1" parent="1">
          <mxGeometry x="190" y="1140" width="50" height="50" as="geometry" />
        </mxCell>
        <mxCell id="k5oq742dMYxYw2PUv_gX-16" value="&lt;font style=&quot;color: rgb(13, 0, 185); font-size: 9px;&quot;&gt;&lt;b style=&quot;&quot;&gt;te0&lt;/b&gt;&lt;/font&gt;" style="text;html=1;align=center;verticalAlign=middle;resizable=0;points=[];autosize=1;strokeColor=none;fillColor=none;" vertex="1" parent="1">
          <mxGeometry x="180.5" y="1115" width="40" height="30" as="geometry" />
        </mxCell>
        <mxCell id="k5oq742dMYxYw2PUv_gX-17" value="&lt;b&gt;&lt;font style=&quot;color: rgb(0, 153, 0);&quot;&gt;HQ-RTR&lt;/font&gt;&lt;/b&gt;" style="text;html=1;align=center;verticalAlign=middle;resizable=0;points=[];autosize=1;strokeColor=none;fillColor=none;" vertex="1" parent="1">
          <mxGeometry x="125" y="1135" width="70" height="30" as="geometry" />
        </mxCell>
        <mxCell id="k5oq742dMYxYw2PUv_gX-18" value="" style="sketch=0;points=[[0.5,0,0],[1,0.5,0],[0.5,1,0],[0,0.5,0],[0.145,0.145,0],[0.8555,0.145,0],[0.855,0.8555,0],[0.145,0.855,0]];verticalLabelPosition=bottom;html=1;verticalAlign=top;aspect=fixed;align=center;pointerEvents=1;shape=mxgraph.cisco19.rect;prIcon=router;fillColor=#FAFAFA;strokeColor=#005073;" vertex="1" parent="1">
          <mxGeometry x="482.5" y="1140" width="50" height="50" as="geometry" />
        </mxCell>
        <mxCell id="k5oq742dMYxYw2PUv_gX-19" value="&lt;b&gt;&lt;font style=&quot;color: rgb(0, 153, 0);&quot;&gt;BR-RTR&lt;/font&gt;&lt;/b&gt;" style="text;html=1;align=center;verticalAlign=middle;resizable=0;points=[];autosize=1;strokeColor=none;fillColor=none;" vertex="1" parent="1">
          <mxGeometry x="520" y="1135" width="70" height="30" as="geometry" />
        </mxCell>
        <mxCell id="k5oq742dMYxYw2PUv_gX-20" value="&lt;b&gt;&lt;font style=&quot;color: rgb(13, 0, 185); font-size: 9px;&quot;&gt;te0&lt;/font&gt;&lt;/b&gt;" style="text;html=1;align=center;verticalAlign=middle;resizable=0;points=[];autosize=1;strokeColor=none;fillColor=none;" vertex="1" parent="1">
          <mxGeometry x="475" y="1114" width="40" height="30" as="geometry" />
        </mxCell>
        <mxCell id="k5oq742dMYxYw2PUv_gX-21" value="" style="html=1;verticalLabelPosition=bottom;align=center;labelBackgroundColor=#ffffff;verticalAlign=top;strokeWidth=1;strokeColor=#4848B5;shadow=0;dashed=0;shape=mxgraph.ios7.icons.cloud;" vertex="1" parent="1">
          <mxGeometry x="182.5" y="1030" width="65" height="40" as="geometry" />
        </mxCell>
        <mxCell id="k5oq742dMYxYw2PUv_gX-22" value="" style="html=1;verticalLabelPosition=bottom;align=center;labelBackgroundColor=#ffffff;verticalAlign=top;strokeWidth=1;strokeColor=#4848B5;shadow=0;dashed=0;shape=mxgraph.ios7.icons.cloud;" vertex="1" parent="1">
          <mxGeometry x="475" y="970" width="65" height="40" as="geometry" />
        </mxCell>
        <mxCell id="k5oq742dMYxYw2PUv_gX-23" value="&lt;b&gt;ISP-HQ&lt;/b&gt;" style="text;html=1;align=center;verticalAlign=middle;resizable=0;points=[];autosize=1;strokeColor=none;fillColor=none;" vertex="1" parent="1">
          <mxGeometry x="185" y="1040" width="60" height="30" as="geometry" />
        </mxCell>
        <mxCell id="k5oq742dMYxYw2PUv_gX-24" value="&lt;b&gt;ISP-BR&lt;/b&gt;" style="text;html=1;align=center;verticalAlign=middle;resizable=0;points=[];autosize=1;strokeColor=none;fillColor=none;" vertex="1" parent="1">
          <mxGeometry x="475" y="980" width="60" height="30" as="geometry" />
        </mxCell>
        <mxCell id="k5oq742dMYxYw2PUv_gX-25" value="&lt;div&gt;&lt;b&gt;&lt;font style=&quot;font-size: 9px;&quot;&gt;&lt;font style=&quot;color: rgb(255, 13, 8);&quot;&gt;&amp;nbsp;&lt;/font&gt;&lt;font style=&quot;color: rgb(13, 0, 185);&quot;&gt;enp6s19&lt;/font&gt;&lt;/font&gt;&lt;/b&gt;&lt;/div&gt;" style="text;html=1;align=left;verticalAlign=middle;resizable=0;points=[];autosize=1;strokeColor=none;fillColor=none;" vertex="1" parent="1">
          <mxGeometry x="170" y="970" width="60" height="30" as="geometry" />
        </mxCell>
        <mxCell id="k5oq742dMYxYw2PUv_gX-26" value="&lt;div&gt;&lt;b&gt;&lt;font style=&quot;color: rgb(13, 0, 185); font-size: 9px;&quot;&gt;&lt;font style=&quot;color: rgb(255, 13, 8);&quot;&gt;&amp;nbsp;&lt;/font&gt;enp6s20&lt;/font&gt;&lt;/b&gt;&lt;/div&gt;" style="text;html=1;align=left;verticalAlign=middle;resizable=0;points=[];autosize=1;strokeColor=none;fillColor=none;" vertex="1" parent="1">
          <mxGeometry x="240" y="928" width="60" height="30" as="geometry" />
        </mxCell>
        <mxCell id="k5oq742dMYxYw2PUv_gX-27" value="&lt;b&gt;&lt;font style=&quot;color: rgb(255, 0, 0);&quot;&gt;172.16.5.0/28&lt;/font&gt;&lt;/b&gt;" style="text;html=1;align=center;verticalAlign=middle;resizable=0;points=[];autosize=1;strokeColor=none;fillColor=none;" vertex="1" parent="1">
          <mxGeometry x="532.5" y="975" width="100" height="30" as="geometry" />
        </mxCell>
        <mxCell id="k5oq742dMYxYw2PUv_gX-28" value="&lt;b&gt;&lt;font style=&quot;color: rgb(255, 0, 0);&quot;&gt;172.16.4.0/28&lt;/font&gt;&lt;/b&gt;" style="text;html=1;align=center;verticalAlign=middle;resizable=0;points=[];autosize=1;strokeColor=none;fillColor=none;" vertex="1" parent="1">
          <mxGeometry x="90" y="1035" width="100" height="30" as="geometry" />
        </mxCell>
        <mxCell id="k5oq742dMYxYw2PUv_gX-29" value="&lt;font style=&quot;color: rgb(255, 6, 6); font-size: 9px;&quot;&gt;&lt;b style=&quot;&quot;&gt;.1&lt;/b&gt;&lt;/font&gt;" style="text;html=1;align=center;verticalAlign=middle;resizable=0;points=[];autosize=1;strokeColor=none;fillColor=none;" vertex="1" parent="1">
          <mxGeometry x="215" y="970" width="30" height="30" as="geometry" />
        </mxCell>
        <mxCell id="k5oq742dMYxYw2PUv_gX-30" value="&lt;font style=&quot;color: rgb(255, 6, 6); font-size: 9px;&quot;&gt;&lt;b style=&quot;&quot;&gt;.1&lt;/b&gt;&lt;/font&gt;" style="text;html=1;align=center;verticalAlign=middle;resizable=0;points=[];autosize=1;strokeColor=none;fillColor=none;" vertex="1" parent="1">
          <mxGeometry x="240" y="920" width="30" height="30" as="geometry" />
        </mxCell>
        <mxCell id="k5oq742dMYxYw2PUv_gX-31" value="&lt;font style=&quot;color: rgb(255, 6, 6); font-size: 9px;&quot;&gt;&lt;b style=&quot;&quot;&gt;.2&lt;/b&gt;&lt;/font&gt;" style="text;html=1;align=center;verticalAlign=middle;resizable=0;points=[];autosize=1;strokeColor=none;fillColor=none;" vertex="1" parent="1">
          <mxGeometry x="215" y="1114" width="30" height="30" as="geometry" />
        </mxCell>
        <mxCell id="k5oq742dMYxYw2PUv_gX-32" value="&lt;font style=&quot;color: rgb(255, 6, 6); font-size: 9px;&quot;&gt;&lt;b style=&quot;&quot;&gt;.2&lt;/b&gt;&lt;/font&gt;" style="text;html=1;align=center;verticalAlign=middle;resizable=0;points=[];autosize=1;strokeColor=none;fillColor=none;" vertex="1" parent="1">
          <mxGeometry x="505" y="1114" width="30" height="30" as="geometry" />
        </mxCell>
        <mxCell id="k5oq742dMYxYw2PUv_gX-33" value="" style="html=1;verticalLabelPosition=bottom;align=center;labelBackgroundColor=#ffffff;verticalAlign=top;strokeWidth=1;strokeColor=#4848B5;shadow=0;dashed=0;shape=mxgraph.ios7.icons.cloud;" vertex="1" parent="1">
          <mxGeometry x="457.5" y="1230" width="95" height="50" as="geometry" />
        </mxCell>
        <mxCell id="k5oq742dMYxYw2PUv_gX-34" value="" style="html=1;verticalLabelPosition=bottom;align=center;labelBackgroundColor=#ffffff;verticalAlign=top;strokeWidth=1;strokeColor=#4848B5;shadow=0;dashed=0;shape=mxgraph.ios7.icons.cloud;" vertex="1" parent="1">
          <mxGeometry x="180.5" y="1230" width="65" height="40" as="geometry" />
        </mxCell>
        <mxCell id="k5oq742dMYxYw2PUv_gX-35" value="&lt;b&gt;HQ-NET&lt;/b&gt;" style="text;html=1;align=center;verticalAlign=middle;resizable=0;points=[];autosize=1;strokeColor=none;fillColor=none;" vertex="1" parent="1">
          <mxGeometry x="177.5" y="1240" width="70" height="30" as="geometry" />
        </mxCell>
        <mxCell id="k5oq742dMYxYw2PUv_gX-36" value="&lt;b&gt;BR-NET&lt;/b&gt;" style="text;html=1;align=center;verticalAlign=middle;resizable=0;points=[];autosize=1;strokeColor=none;fillColor=none;" vertex="1" parent="1">
          <mxGeometry x="470" y="1240" width="70" height="30" as="geometry" />
        </mxCell>
        <mxCell id="k5oq742dMYxYw2PUv_gX-37" value="" style="image;points=[];aspect=fixed;html=1;align=center;shadow=0;dashed=0;image=img/lib/allied_telesis/computer_and_terminals/Server_Desktop.svg;" vertex="1" parent="1">
          <mxGeometry x="486.20000000000005" y="1325" width="42.599999999999994" height="54" as="geometry" />
        </mxCell>
        <mxCell id="k5oq742dMYxYw2PUv_gX-38" value="" style="endArrow=none;html=1;rounded=0;strokeWidth=3;" edge="1" parent="1" source="k5oq742dMYxYw2PUv_gX-44">
          <mxGeometry width="50" height="50" relative="1" as="geometry">
            <mxPoint x="320" y="1350" as="sourcePoint" />
            <mxPoint x="100" y="1350" as="targetPoint" />
          </mxGeometry>
        </mxCell>
        <mxCell id="k5oq742dMYxYw2PUv_gX-39" value="" style="endArrow=none;html=1;rounded=0;strokeWidth=3;" edge="1" parent="1">
          <mxGeometry width="50" height="50" relative="1" as="geometry">
            <mxPoint x="320" y="1410" as="sourcePoint" />
            <mxPoint x="320" y="1348.4" as="targetPoint" />
          </mxGeometry>
        </mxCell>
        <mxCell id="k5oq742dMYxYw2PUv_gX-40" value="" style="endArrow=none;html=1;rounded=0;strokeWidth=3;" edge="1" parent="1">
          <mxGeometry width="50" height="50" relative="1" as="geometry">
            <mxPoint x="100" y="1398.4" as="sourcePoint" />
            <mxPoint x="100" y="1348.4" as="targetPoint" />
          </mxGeometry>
        </mxCell>
        <mxCell id="k5oq742dMYxYw2PUv_gX-41" value="" style="image;points=[];aspect=fixed;html=1;align=center;shadow=0;dashed=0;image=img/lib/allied_telesis/computer_and_terminals/Personal_Computer_with_Server.svg;" vertex="1" parent="1">
          <mxGeometry x="61.69999999999999" y="1390" width="62.400000000000006" height="62.400000000000006" as="geometry" />
        </mxCell>
        <mxCell id="k5oq742dMYxYw2PUv_gX-42" value="" style="image;points=[];aspect=fixed;html=1;align=center;shadow=0;dashed=0;image=img/lib/allied_telesis/computer_and_terminals/Server_Desktop.svg;" vertex="1" parent="1">
          <mxGeometry x="300" y="1398.4" width="42.599999999999994" height="54" as="geometry" />
        </mxCell>
        <mxCell id="k5oq742dMYxYw2PUv_gX-43" value="" style="endArrow=none;html=1;rounded=0;strokeWidth=3;" edge="1" parent="1" target="k5oq742dMYxYw2PUv_gX-44">
          <mxGeometry width="50" height="50" relative="1" as="geometry">
            <mxPoint x="320" y="1350" as="sourcePoint" />
            <mxPoint x="100" y="1350" as="targetPoint" />
          </mxGeometry>
        </mxCell>
        <mxCell id="k5oq742dMYxYw2PUv_gX-44" value="" style="sketch=0;points=[[0.015,0.015,0],[0.985,0.015,0],[0.985,0.985,0],[0.015,0.985,0],[0.25,0,0],[0.5,0,0],[0.75,0,0],[1,0.25,0],[1,0.5,0],[1,0.75,0],[0.75,1,0],[0.5,1,0],[0.25,1,0],[0,0.75,0],[0,0.5,0],[0,0.25,0]];verticalLabelPosition=bottom;html=1;verticalAlign=top;aspect=fixed;align=center;pointerEvents=1;shape=mxgraph.cisco19.rect;prIcon=l2_switch;fillColor=#FAFAFA;strokeColor=#005073;" vertex="1" parent="1">
          <mxGeometry x="190" y="1325" width="50" height="50" as="geometry" />
        </mxCell>
        <mxCell id="k5oq742dMYxYw2PUv_gX-45" value="" style="html=1;verticalLabelPosition=bottom;align=center;labelBackgroundColor=#ffffff;verticalAlign=top;strokeWidth=1;strokeColor=#4848B5;shadow=0;dashed=0;shape=mxgraph.ios7.icons.cloud;" vertex="1" parent="1">
          <mxGeometry x="288.79999999999995" y="1325" width="65" height="40" as="geometry" />
        </mxCell>
        <mxCell id="k5oq742dMYxYw2PUv_gX-46" value="" style="html=1;verticalLabelPosition=bottom;align=center;labelBackgroundColor=#ffffff;verticalAlign=top;strokeWidth=1;strokeColor=#4848B5;shadow=0;dashed=0;shape=mxgraph.ios7.icons.cloud;" vertex="1" parent="1">
          <mxGeometry x="69" y="1325" width="65" height="40" as="geometry" />
        </mxCell>
        <mxCell id="k5oq742dMYxYw2PUv_gX-47" value="&lt;b&gt;CLI-NET&lt;/b&gt;" style="text;html=1;align=center;verticalAlign=middle;resizable=0;points=[];autosize=1;strokeColor=none;fillColor=none;" vertex="1" parent="1">
          <mxGeometry x="66.5" y="1337" width="70" height="30" as="geometry" />
        </mxCell>
        <mxCell id="k5oq742dMYxYw2PUv_gX-48" value="&lt;b&gt;SRV-NET&lt;/b&gt;" style="text;html=1;align=center;verticalAlign=middle;resizable=0;points=[];autosize=1;strokeColor=none;fillColor=none;" vertex="1" parent="1">
          <mxGeometry x="281.29999999999995" y="1335" width="80" height="30" as="geometry" />
        </mxCell>
        <mxCell id="k5oq742dMYxYw2PUv_gX-49" value="&lt;b&gt;&lt;font style=&quot;color: rgb(13, 0, 185); font-size: 9px;&quot;&gt;te1&lt;/font&gt;&lt;/b&gt;" style="text;html=1;align=center;verticalAlign=middle;resizable=0;points=[];autosize=1;strokeColor=none;fillColor=none;" vertex="1" parent="1">
          <mxGeometry x="475" y="1180" width="40" height="30" as="geometry" />
        </mxCell>
        <mxCell id="k5oq742dMYxYw2PUv_gX-50" value="&lt;font style=&quot;color: rgb(13, 0, 185); font-size: 9px;&quot;&gt;&lt;b style=&quot;&quot;&gt;te1&lt;/b&gt;&lt;/font&gt;" style="text;html=1;align=center;verticalAlign=middle;resizable=0;points=[];autosize=1;strokeColor=none;fillColor=none;" vertex="1" parent="1">
          <mxGeometry x="180" y="1180" width="40" height="30" as="geometry" />
        </mxCell>
        <mxCell id="k5oq742dMYxYw2PUv_gX-51" value="&lt;b&gt;&lt;font style=&quot;color: rgb(0, 153, 0);&quot;&gt;CLI&lt;/font&gt;&lt;/b&gt;" style="text;html=1;align=center;verticalAlign=middle;resizable=0;points=[];autosize=1;strokeColor=none;fillColor=none;" vertex="1" parent="1">
          <mxGeometry x="40" y="1379" width="40" height="30" as="geometry" />
        </mxCell>
        <mxCell id="k5oq742dMYxYw2PUv_gX-52" value="&lt;b&gt;&lt;font style=&quot;color: rgb(0, 153, 0);&quot;&gt;SRV&lt;/font&gt;&lt;/b&gt;" style="text;html=1;align=center;verticalAlign=middle;resizable=0;points=[];autosize=1;strokeColor=none;fillColor=none;" vertex="1" parent="1">
          <mxGeometry x="270" y="1379" width="50" height="30" as="geometry" />
        </mxCell>
        <mxCell id="k5oq742dMYxYw2PUv_gX-53" value="&lt;b&gt;&lt;font style=&quot;color: rgb(0, 153, 0);&quot;&gt;SRV&lt;/font&gt;&lt;/b&gt;" style="text;html=1;align=center;verticalAlign=middle;resizable=0;points=[];autosize=1;strokeColor=none;fillColor=none;" vertex="1" parent="1">
          <mxGeometry x="432.5" y="1337" width="50" height="30" as="geometry" />
        </mxCell>
        <mxCell id="k5oq742dMYxYw2PUv_gX-54" value="&lt;font style=&quot;font-size: 19px; color: rgb(255, 0, 0);&quot;&gt;&lt;b style=&quot;&quot;&gt;HQ&lt;/b&gt;&lt;/font&gt;" style="text;html=1;align=center;verticalAlign=middle;resizable=0;points=[];autosize=1;strokeColor=none;fillColor=none;" vertex="1" parent="1">
          <mxGeometry x="135" y="1452.4" width="50" height="40" as="geometry" />
        </mxCell>
        <mxCell id="k5oq742dMYxYw2PUv_gX-55" value="&lt;font style=&quot;font-size: 19px; color: rgb(255, 0, 0);&quot;&gt;&lt;b style=&quot;&quot;&gt;BR&lt;/b&gt;&lt;/font&gt;" style="text;html=1;align=center;verticalAlign=middle;resizable=0;points=[];autosize=1;strokeColor=none;fillColor=none;" vertex="1" parent="1">
          <mxGeometry x="450" y="1452.4" width="50" height="40" as="geometry" />
        </mxCell>
        <mxCell id="k5oq742dMYxYw2PUv_gX-56" value="" style="ellipse;whiteSpace=wrap;html=1;fillColor=none;dashed=1;strokeColor=#FFAB2B;strokeWidth=3;" vertex="1" parent="1">
          <mxGeometry x="254" y="1230" width="112" height="247" as="geometry" />
        </mxCell>
        <mxCell id="k5oq742dMYxYw2PUv_gX-57" value="" style="ellipse;whiteSpace=wrap;html=1;fillColor=none;dashed=1;strokeColor=#FFAB2B;strokeWidth=3;" vertex="1" parent="1">
          <mxGeometry x="170" y="1380" width="90" height="100" as="geometry" />
        </mxCell>
        <mxCell id="k5oq742dMYxYw2PUv_gX-58" value="" style="rounded=1;whiteSpace=wrap;html=1;" vertex="1" parent="1">
          <mxGeometry x="285.5" y="1264" width="50" height="20" as="geometry" />
        </mxCell>
        <mxCell id="k5oq742dMYxYw2PUv_gX-59" value="&lt;b&gt;&lt;font style=&quot;color: rgb(0, 0, 0); font-size: 10px;&quot;&gt;VLAN100&lt;/font&gt;&lt;/b&gt;" style="text;html=1;align=center;verticalAlign=middle;resizable=0;points=[];autosize=1;strokeColor=none;fillColor=none;" vertex="1" parent="1">
          <mxGeometry x="275" y="1259" width="70" height="30" as="geometry" />
        </mxCell>
        <mxCell id="k5oq742dMYxYw2PUv_gX-60" value="&lt;b&gt;&lt;font style=&quot;color: rgb(0, 0, 0); font-size: 10px;&quot;&gt;VLAN200&lt;/font&gt;&lt;/b&gt;" style="text;html=1;align=center;verticalAlign=middle;resizable=0;points=[];autosize=1;strokeColor=none;fillColor=none;" vertex="1" parent="1">
          <mxGeometry x="66" y="1259" width="70" height="30" as="geometry" />
        </mxCell>
        <mxCell id="k5oq742dMYxYw2PUv_gX-61" value="" style="rounded=1;whiteSpace=wrap;html=1;" vertex="1" parent="1">
          <mxGeometry x="190" y="1384" width="50" height="20" as="geometry" />
        </mxCell>
        <mxCell id="k5oq742dMYxYw2PUv_gX-62" value="&lt;b&gt;&lt;font style=&quot;color: rgb(0, 0, 0); font-size: 10px;&quot;&gt;VLAN999&lt;/font&gt;&lt;/b&gt;" style="text;html=1;align=center;verticalAlign=middle;resizable=0;points=[];autosize=1;strokeColor=none;fillColor=none;" vertex="1" parent="1">
          <mxGeometry x="180" y="1379" width="70" height="30" as="geometry" />
        </mxCell>
        <mxCell id="k5oq742dMYxYw2PUv_gX-63" value="&lt;b&gt;&lt;i&gt;&lt;font style=&quot;color: rgb(255, 27, 22); font-size: 10px;&quot;&gt;192.168.100.0/26&lt;/font&gt;&lt;/i&gt;&lt;/b&gt;" style="text;html=1;align=center;verticalAlign=middle;resizable=0;points=[];autosize=1;strokeColor=none;fillColor=none;" vertex="1" parent="1">
          <mxGeometry x="260" y="1277" width="100" height="30" as="geometry" />
        </mxCell>
        <mxCell id="k5oq742dMYxYw2PUv_gX-64" value="&lt;b&gt;&lt;i&gt;&lt;font style=&quot;color: rgb(255, 27, 22); font-size: 10px;&quot;&gt;192.168.200.0/28&lt;/font&gt;&lt;/i&gt;&lt;/b&gt;&lt;span style=&quot;color: rgba(0, 0, 0, 0); font-family: monospace; font-size: 0px; text-align: start;&quot;&gt;%3CmxGraphModel%3E%3Croot%3E%3CmxCell%20id%3D%220%22%2F%3E%3CmxCell%20id%3D%221%22%20parent%3D%220%22%2F%3E%3CmxCell%20id%3D%222%22%20value%3D%22%26lt%3Bb%26gt%3B%26lt%3Bi%26gt%3B%26lt%3Bfont%20style%3D%26quot%3Bcolor%3A%20rgb(255%2C%2027%2C%2022)%3B%20font-size%3A%2010px%3B%26quot%3B%26gt%3B192.168.100.0%2F26%26lt%3B%2Ffont%26gt%3B%26lt%3B%2Fi%26gt%3B%26lt%3B%2Fb%26gt%3B%22%20style%3D%22text%3Bhtml%3D1%3Balign%3Dcenter%3BverticalAlign%3Dmiddle%3Bresizable%3D0%3Bpoints%3D%5B%5D%3Bautosize%3D1%3BstrokeColor%3Dnone%3BfillColor%3Dnone%3B%22%20vertex%3D%221%22%20parent%3D%221%22%3E%3CmxGeometry%20x%3D%22331.5%22%20y%3D%22533%22%20width%3D%22100%22%20height%3D%2230%22%20as%3D%22geometry%22%2F%3E%3C%2FmxCell%3E%3C%2Froot%3E%3C%2FmxGraphModel%3E&lt;/span&gt;" style="text;html=1;align=center;verticalAlign=middle;resizable=0;points=[];autosize=1;strokeColor=none;fillColor=none;" vertex="1" parent="1">
          <mxGeometry x="51" y="1277" width="100" height="30" as="geometry" />
        </mxCell>
        <mxCell id="k5oq742dMYxYw2PUv_gX-65" value="&lt;b&gt;&lt;i&gt;&lt;font style=&quot;color: rgb(255, 27, 22); font-size: 10px;&quot;&gt;192.168.0.0/27&lt;/font&gt;&lt;/i&gt;&lt;/b&gt;&lt;span style=&quot;color: rgba(0, 0, 0, 0); font-family: monospace; font-size: 0px; text-align: start;&quot;&gt;%3CmxGraphModel%3E%3Croot%3E%3CmxCell%20id%3D%220%22%2F%3E%3CmxCell%20id%3D%221%22%20parent%3D%220%22%2F%3E%3CmxCell%20id%3D%222%22%20value%3D%22%26lt%3Bb%26gt%3B%26lt%3Bi%26gt%3B%26lt%3Bfont%20style%3D%26quot%3Bcolor%3A%20rgb(255%2C%2027%2C%2022)%3B%20font-size%3A%2010px%3B%26quot%3B%26gt%3B192.168.100.0%2F26%26lt%3B%2Ffont%26gt%3B%26lt%3B%2Fi%26gt%3B%26lt%3B%2Fb%26gt%3B%22%20style%3D%22text%3Bhtml%3D1%3Balign%3Dcenter%3BverticalAlign%3Dmiddle%3Bresizable%3D0%3Bpoints%3D%5B%5D%3Bautosize%3D1%3BstrokeColor%3Dnone%3BfillColor%3Dnone%3B%22%20vertex%3D%221%22%20parent%3D%221%22%3E%3CmxGeometry%20x%3D%22331.5%22%20y%3D%22533%22%20width%3D%22100%22%20height%3D%2230%22%20as%3D%22geometry%22%2F%3E%3C%2FmxCell%3E%3C%2Froot%3E%3C%2FmxGraphModel%3E&lt;/span&gt;" style="text;html=1;align=center;verticalAlign=middle;resizable=0;points=[];autosize=1;strokeColor=none;fillColor=none;" vertex="1" parent="1">
          <mxGeometry x="457.5" y="1255" width="90" height="30" as="geometry" />
        </mxCell>
        <mxCell id="k5oq742dMYxYw2PUv_gX-66" value="&lt;font style=&quot;color: rgb(255, 6, 6); font-size: 9px;&quot;&gt;&lt;b style=&quot;&quot;&gt;.2&lt;/b&gt;&lt;/font&gt;" style="text;html=1;align=center;verticalAlign=middle;resizable=0;points=[];autosize=1;strokeColor=none;fillColor=none;" vertex="1" parent="1">
          <mxGeometry x="510" y="1307" width="30" height="30" as="geometry" />
        </mxCell>
        <mxCell id="k5oq742dMYxYw2PUv_gX-67" value="&lt;font style=&quot;color: rgb(255, 6, 6); font-size: 9px;&quot;&gt;&lt;b style=&quot;&quot;&gt;.1&lt;/b&gt;&lt;/font&gt;" style="text;html=1;align=center;verticalAlign=middle;resizable=0;points=[];autosize=1;strokeColor=none;fillColor=none;" vertex="1" parent="1">
          <mxGeometry x="505" y="1180" width="30" height="30" as="geometry" />
        </mxCell>
        <mxCell id="k5oq742dMYxYw2PUv_gX-68" value="&lt;b&gt;&lt;i&gt;&lt;font style=&quot;color: rgb(255, 27, 22); font-size: 10px;&quot;&gt;192.168.99.0/29&lt;/font&gt;&lt;/i&gt;&lt;/b&gt;" style="text;html=1;align=center;verticalAlign=middle;resizable=0;points=[];autosize=1;strokeColor=none;fillColor=none;" vertex="1" parent="1">
          <mxGeometry x="165" y="1398.4" width="100" height="30" as="geometry" />
        </mxCell>
        <mxCell id="k5oq742dMYxYw2PUv_gX-69" value="" style="shape=cylinder3;whiteSpace=wrap;html=1;boundedLbl=1;backgroundOutline=1;size=6.2384521484375455;rotation=-90;fillColor=#dae8fc;strokeColor=#6c8ebf;" vertex="1" parent="1">
          <mxGeometry x="350.5" y="1054.5" width="26" height="220" as="geometry" />
        </mxCell>
        <mxCell id="k5oq742dMYxYw2PUv_gX-70" value="&lt;b&gt;&lt;i&gt;&lt;font style=&quot;color: rgb(0, 20, 197);&quot;&gt;GRE Tunnel&lt;/font&gt;&lt;/i&gt;&lt;/b&gt;" style="text;html=1;align=center;verticalAlign=middle;resizable=0;points=[];autosize=1;strokeColor=none;fillColor=none;" vertex="1" parent="1">
          <mxGeometry x="318.5" y="1149.5" width="90" height="30" as="geometry" />
        </mxCell>
      </root>
    </mxGraphModel>
  </diagram>
</mxfile>
